<svg xmlns="http://www.w3.org/2000/svg" viewBox="0 0 1200 675"><defs><linearGradient id="g" x2="1" y2="1"><stop stop-color="#291315"/><stop offset="1" stop-color="#bc522f"/></linearGradient></defs><rect width="1200" height="675" fill="url(#g)"/><path d="M905 95c42 117-49 143-2 223 24 41 79 31 100-7 52 111 22 251-111 277-138 27-252-74-225-205 16-75 72-125 122-179-5 70 19 100 54 80 49-28 62-103 62-189Z" fill="#ffd27c"/><path d="M891 348c50 67 28 145-28 166-56-21-79-99-29-166 9 46 48 46 57 0Z" fill="#f15b35"/><text x="82" y="500" fill="#fff" font-family="sans-serif" font-size="76" font-weight="700">行业热议</text><text x="87" y="558" fill="#ffd79b" font-family="sans-serif" font-size="28" letter-spacing="8">TRENDING NOW</text></svg>
